<svg xmlns="http://www.w3.org/2000/svg" viewBox="0 0 720 280" font-family="Segoe UI, sans-serif" font-size="13">
  <rect width="720" height="280" fill="#f8fafc"/>
  <rect x="24" y="40" width="280" height="200" rx="8" fill="#eff6ff" stroke="#2563eb" stroke-width="2"/>
  <text x="164" y="68" text-anchor="middle" font-weight="bold" fill="#1e40af">VPC-A (10.1.0.0/16)</text>
  <rect x="48" y="88" width="100" height="56" rx="4" fill="#fff" stroke="#64748b"/>
  <text x="98" y="120" text-anchor="middle">EC2</text>
  <text x="98" y="136" text-anchor="middle" font-size="11">10.1.1.10</text>
  <rect x="180" y="100" width="100" height="40" rx="4" fill="#dbeafe" stroke="#2563eb"/>
  <text x="230" y="125" text-anchor="middle" font-size="11">Route table</text>
  <rect x="416" y="40" width="280" height="200" rx="8" fill="#f0fdf4" stroke="#16a34a" stroke-width="2"/>
  <text x="556" y="68" text-anchor="middle" font-weight="bold" fill="#166534">VPC-B (10.2.0.0/16)</text>
  <rect x="440" y="88" width="100" height="56" rx="4" fill="#fff" stroke="#64748b"/>
  <text x="490" y="120" text-anchor="middle">EC2</text>
  <text x="490" y="136" text-anchor="middle" font-size="11">10.2.1.20</text>
  <rect x="572" y="100" width="100" height="40" rx="4" fill="#dcfce7" stroke="#16a34a"/>
  <text x="622" y="125" text-anchor="middle" font-size="11">Route table</text>
  <ellipse cx="360" cy="140" rx="72" ry="36" fill="#fef3c7" stroke="#d97706" stroke-width="2"/>
  <text x="360" y="136" text-anchor="middle" font-weight="bold">Peering</text>
  <text x="360" y="152" text-anchor="middle" font-size="11">pcx-&</text>
  <line x1="280" y1="120" x2="288" y2="130" stroke="#d97706" stroke-width="2" marker-end="url(#arrow)"/>
  <line x1="432" y1="130" x2="440" y2="120" stroke="#d97706" stroke-width="2"/>
  <text x="360" y="248" text-anchor="middle" fill="#475569">Private traffic stays on the AWS network (not via Internet Gateway)</text>
  <defs>
    <marker id="arrow" markerWidth="8" markerHeight="8" refX="6" refY="3" orient="auto">
      <path d="M0,0 L6,3 L0,6 Z" fill="#d97706"/>
    </marker>
  </defs>
</svg>
